<svg width="33" height="32" viewBox="0 0 33 32" fill="none" xmlns="http://www.w3.org/2000/svg">
<path d="M33 15.9956C20.4657 20.1952 15.3539 24.8367 5.29478 31.9912C19.4693 19.3051 19.0397 12.3056 5.29478 -1.21103e-06C14.9174 6.58693 19.7576 10.4376 33 15.9956Z" fill="url(#paint0_linear_6602_1669)"/>
<path d="M33 15.9956C20.4657 20.1952 15.3539 24.8367 5.29478 31.9912C19.4693 19.3051 19.0397 12.3056 5.29478 -1.21103e-06C14.9174 6.58693 19.7576 10.4376 33 15.9956Z" fill="url(#paint1_linear_6602_1669)"/>
<path d="M16.7463 15.5029C9.17002 18.0246 6.0802 20.8115 6.78974e-06 25.1074C8.56773 17.4901 8.30806 13.2872 7.62939e-06 5.89844C5.81635 9.85352 8.74198 12.1656 16.7463 15.5029Z" fill="url(#paint2_linear_6602_1669)"/>
<path d="M16.7463 15.5029C9.17002 18.0246 6.0802 20.8115 6.78974e-06 25.1074C8.56773 17.4901 8.30806 13.2872 7.62939e-06 5.89844C5.81635 9.85352 8.74198 12.1656 16.7463 15.5029Z" fill="url(#paint3_linear_6602_1669)"/>
<defs>
<linearGradient id="paint0_linear_6602_1669" x1="33" y1="15.9956" x2="5.29478" y2="15.9956" gradientUnits="userSpaceOnUse">
<stop stop-color="#FFD5A3"/>
<stop offset="1" stop-color="#A3763F"/>
</linearGradient>
<linearGradient id="paint1_linear_6602_1669" x1="33" y1="15.9956" x2="5.29478" y2="15.9956" gradientUnits="userSpaceOnUse">
<stop stop-color="#6E5B43"/>
<stop offset="1" stop-color="#08051E"/>
</linearGradient>
<linearGradient id="paint2_linear_6602_1669" x1="16.7463" y1="15.5029" x2="7.20957e-06" y2="15.5029" gradientUnits="userSpaceOnUse">
<stop stop-color="#FFD5A3"/>
<stop offset="1" stop-color="#A3763F"/>
</linearGradient>
<linearGradient id="paint3_linear_6602_1669" x1="16.7463" y1="15.5029" x2="7.20957e-06" y2="15.5029" gradientUnits="userSpaceOnUse">
<stop stop-color="#6E5B43"/>
<stop offset="1" stop-color="#08051E"/>
</linearGradient>
</defs>
</svg>
