<svg width="18" height="18" viewBox="0 0 18 18" fill="none" xmlns="http://www.w3.org/2000/svg">
<path d="M17.1894 0.402694C17.066 0.279089 16.9195 0.181026 16.7582 0.114117C16.5969 0.0472087 16.424 0.0127684 16.2494 0.0127684C16.0747 0.0127684 15.9018 0.0472087 15.7405 0.114117C15.5792 0.181026 15.4327 0.279089 15.3094 0.402694L8.78936 6.90936L2.26936 0.38936C2.14592 0.265918 1.99937 0.167998 1.83809 0.101191C1.6768 0.0343846 1.50394 1.30068e-09 1.32936 0C1.15479 -1.30068e-09 0.981922 0.0343846 0.820636 0.101191C0.659351 0.167998 0.512803 0.265918 0.38936 0.38936C0.265918 0.512803 0.167998 0.659351 0.101191 0.820636C0.0343846 0.981922 -1.30068e-09 1.15479 0 1.32936C1.30068e-09 1.50394 0.0343846 1.6768 0.101191 1.83809C0.167998 1.99937 0.265918 2.14592 0.38936 2.26936L6.90936 8.78936L0.38936 15.3094C0.265918 15.4328 0.167998 15.5794 0.101191 15.7406C0.0343846 15.9019 0 16.0748 0 16.2494C0 16.4239 0.0343846 16.5968 0.101191 16.7581C0.167998 16.9194 0.265918 17.0659 0.38936 17.1894C0.512803 17.3128 0.659351 17.4107 0.820636 17.4775C0.981922 17.5443 1.15479 17.5787 1.32936 17.5787C1.50394 17.5787 1.6768 17.5443 1.83809 17.4775C1.99937 17.4107 2.14592 17.3128 2.26936 17.1894L8.78936 10.6694L15.3094 17.1894C15.4328 17.3128 15.5794 17.4107 15.7406 17.4775C15.9019 17.5443 16.0748 17.5787 16.2494 17.5787C16.4239 17.5787 16.5968 17.5443 16.7581 17.4775C16.9194 17.4107 17.0659 17.3128 17.1894 17.1894C17.3128 17.0659 17.4107 16.9194 17.4775 16.7581C17.5443 16.5968 17.5787 16.4239 17.5787 16.2494C17.5787 16.0748 17.5443 15.9019 17.4775 15.7406C17.4107 15.5794 17.3128 15.4328 17.1894 15.3094L10.6694 8.78936L17.1894 2.26936C17.696 1.76269 17.696 0.909361 17.1894 0.402694Z" fill="#FFD5A3"/>
</svg>
