<svg width="50" height="50" viewBox="0 0 50 50" fill="none" xmlns="http://www.w3.org/2000/svg">
<path d="M38.7746 35.3211H35.37C34.0809 35.3211 33.6825 34.2961 31.3668 31.9492C29.3496 29.9961 28.4575 29.7336 27.9621 29.7336C27.2668 29.7336 27.0684 29.932 27.0684 30.8914V33.9664C27.0684 34.7945 26.8043 35.2898 24.6215 35.2898C20.2184 34.9945 16.434 32.593 14.2371 29.093L14.2043 29.0383C11.6543 25.8711 9.77464 22.0539 8.84495 17.8789L8.81058 17.6961C8.81058 17.2008 9.00902 16.7367 9.96839 16.7367H13.3731C14.2325 16.7367 14.5637 17.1336 14.8965 18.0586C16.5809 22.9211 19.3934 27.1867 20.5512 27.1867C20.9809 27.1867 21.1793 26.9883 21.1793 25.8977V20.868C21.0465 18.5523 19.8231 18.3555 19.8231 17.5289C19.8371 17.0867 20.1996 16.7336 20.6434 16.7336C20.6575 16.7336 20.67 16.7336 20.684 16.7352H20.6825H26.0403C26.7684 16.7352 27.0325 17.132 27.0325 17.9914V24.7727C27.0325 25.4992 27.3637 25.7648 27.5621 25.7648C27.9918 25.7648 28.3575 25.4992 29.1496 24.707C30.7965 22.6961 32.2043 20.3961 33.2778 17.9164L33.3496 17.7289C33.5762 17.1617 34.12 16.768 34.7559 16.768C34.7856 16.768 34.8137 16.7695 34.8434 16.7711H34.8387H38.2434C39.2684 16.7711 39.5012 17.2977 39.2684 18.0273C37.9028 21.0352 36.3684 23.6195 34.5903 26.0133L34.6715 25.8977C34.309 26.493 34.1762 26.757 34.6715 27.4211C35.034 27.9164 36.2262 28.9414 37.02 29.868C38.1684 31.0039 39.1309 32.3258 39.8575 33.7852L39.8965 33.8711C40.2278 34.8273 39.7309 35.3242 38.7715 35.3242L38.7746 35.3211ZM31.5668 1.88672H17.1809C4.0512 1.88672 0.94339 4.99453 0.94339 18.1242V32.5102C0.94339 45.6398 4.0512 48.7477 17.1809 48.7477H31.5668C44.6965 48.7477 47.8043 45.6398 47.8043 32.5102V18.1242C47.8043 4.99453 44.6621 1.88672 31.5668 1.88672Z" fill="#FFD5A3"/>
</svg>
